<svg width="24" height="24" viewBox="0 0 24 24" fill="none" xmlns="http://www.w3.org/2000/svg">
<path fill-rule="evenodd" clip-rule="evenodd" d="M7 2.25C7.41421 2.25 7.75 2.58579 7.75 3V12.8C7.75 13.3724 7.75058 13.7565 7.77476 14.0523C7.79821 14.3393 7.84008 14.4765 7.88624 14.5671C8.00642 14.803 8.19774 14.9945 8.43229 15.114C8.52263 15.16 8.65973 15.2018 8.9465 15.2253C9.24198 15.2494 9.62558 15.25 10.1969 15.25H16.1893L12.4697 11.5303C12.1768 11.2374 12.1768 10.7626 12.4697 10.4697C12.7626 10.1768 13.2374 10.1768 13.5303 10.4697L18.5303 15.4697C18.8232 15.7626 18.8232 16.2374 18.5303 16.5303L13.5303 21.5303C13.2374 21.8232 12.7626 21.8232 12.4697 21.5303C12.1768 21.2374 12.1768 20.7626 12.4697 20.4697L16.1893 16.75H10.1665C9.63341 16.75 9.18817 16.75 8.82433 16.7203C8.44487 16.6893 8.08837 16.6222 7.7513 16.4505C7.2332 16.1865 6.81305 15.7649 6.54973 15.2481C6.37791 14.9109 6.31079 14.5543 6.27974 14.1745C6.24998 13.8103 6.24999 13.3646 6.25 12.8305L6.25 3C6.25 2.58579 6.58579 2.25 7 2.25Z" fill="white"/>
</svg>
