<svg width="128" height="128" viewBox="0 0 128 128" fill="none" xmlns="http://www.w3.org/2000/svg">
<circle cx="64" cy="64" r="61" stroke="white" stroke-width="6"/>
<circle cx="64" cy="64" r="48.9412" fill="white"/>
<path d="M60.2415 75.2918C59.5958 75.2918 58.9789 75.0373 58.5235 74.5809L49.6325 65.6646C48.7 64.7278 48.712 63.2252 49.6614 62.3026C50.6107 61.3849 52.1359 61.3943 53.0684 62.3312L60.1716 69.4546L74.8672 53.4839C75.7659 52.5115 77.2888 52.4425 78.2694 53.3222C79.2548 54.2044 79.3271 55.707 78.4332 56.6819L62.0246 74.5142C61.5789 74.9992 60.9523 75.2798 60.2898 75.294C60.2729 75.2918 60.2584 75.2918 60.2415 75.2918Z" fill="#6F85C2"/>
</svg>
